<?xml version="1.0" encoding="UTF-8" standalone="no"?>
<!--
SPDX-FileCopyrightText: 2025 portfiend

SPDX-License-Identifier: AGPL-3.0-or-later
-->

<!-- Created with Inkscape (http://www.inkscape.org/) -->

<svg
   width="6.2695208mm"
   height="9.2877626mm"
   viewBox="0 0 6.2695209 9.2877626"
   version="1.1"
   id="svg5"
   inkscape:version="1.2.2 (b0a8486541, 2022-12-01)"
   sodipodi:docname="mirror.svg"
   inkscape:export-filename="mirror.png"
   inkscape:export-xdpi="192"
   inkscape:export-ydpi="192"
   xml:space="preserve"
   xmlns:inkscape="http://www.inkscape.org/namespaces/inkscape"
   xmlns:sodipodi="http://sodipodi.sourceforge.net/DTD/sodipodi-0.dtd"
   xmlns="http://www.w3.org/2000/svg"
   xmlns:svg="http://www.w3.org/2000/svg"><sodipodi:namedview
     id="namedview7"
     pagecolor="#ffffff"
     bordercolor="#000000"
     borderopacity="0.25"
     inkscape:showpageshadow="2"
     inkscape:pageopacity="0.0"
     inkscape:pagecheckerboard="0"
     inkscape:deskcolor="#d1d1d1"
     inkscape:document-units="mm"
     showgrid="false"
     inkscape:zoom="4.1726443"
     inkscape:cx="-9.5862474"
     inkscape:cy="28.758742"
     inkscape:window-width="1920"
     inkscape:window-height="1002"
     inkscape:window-x="0"
     inkscape:window-y="0"
     inkscape:window-maximized="1"
     inkscape:current-layer="layer1" /><defs
     id="defs2" /><g
     inkscape:label="Layer 1"
     inkscape:groupmode="layer"
     id="layer1"
     transform="translate(-4.92811,-67.96577)"><g
       id="g8501"
       transform="matrix(0.23676019,0,0,0.23676019,-1.2151696,56.555501)"
       style="stroke-width:4.22368;fill:#ffffff"><path
         style="color:#000000;fill:#ffffff;stroke-width:4.22368;stroke-linejoin:round;-inkscape-stroke:none;paint-order:stroke fill markers"
         d="m 37.533626,68.091451 -3.975468,3.469039 -0.390157,0.98857 a 1.0001,1.0001 0 0 1 -1.350305,0.5302 l -0.810803,0.707451 c 0.507486,0.526248 1.054003,1.004119 1.633492,1.427819 l 8.163326,-7.123079 z"
         id="path6147" /><path
         style="color:#000000;fill:#ffffff;stroke-width:4.22368;stroke-linejoin:round;-inkscape-stroke:none;paint-order:stroke fill markers"
         d="m 28.179159,65.964449 -0.866614,0.756026 c 0.169734,0.782566 0.396219,1.539748 0.674377,2.265495 l 0.799951,-0.697632 c -0.261704,-0.74181 -0.465919,-1.518666 -0.607714,-2.323889 z"
         id="path6145" /><path
         style="color:#000000;fill:#ffffff;stroke-width:4.22368;stroke-linejoin:round;-inkscape-stroke:none;paint-order:stroke fill markers"
         d="m 51.333301,61.540946 -0.93431,0.815455 c 0.01874,0.309886 0.02894,0.622759 0.02894,0.938444 0,3.794687 -1.36354,7.175033 -3.552755,9.560656 A 1.0001,1.0001 0 0 1 45.209127,72.546993 L 43.820064,69.03713 h 0.0021 C 43.730779,68.80654 43.58719,68.609633 43.40872,68.45577 l -8.982398,7.837764 c 1.460638,0.710725 3.068297,1.104842 4.76095,1.104842 6.80464,10e-7 12.240597,-6.363333 12.240597,-14.103531 0,-0.593535 -0.03248,-1.178826 -0.09457,-1.753899 z"
         id="path6141" /><path
         style="color:#000000;fill:#ffffff;stroke-width:4.22368;stroke-linejoin:round;-inkscape-stroke:none;paint-order:stroke fill markers"
         d="m 34.371545,60.561678 -4.371309,3.814238 c 0.08112,0.850656 0.255071,1.655447 0.500745,2.41639 l 3.856095,-3.364653 c -0.135132,-0.435222 -0.210846,-0.896897 -0.21084,-1.380794 -7e-6,-0.516324 0.07937,-1.015128 0.225309,-1.485181 z"
         id="path6137" /><path
         style="color:#000000;fill:#ffffff;stroke-width:4.22368;stroke-linejoin:round;-inkscape-stroke:none;paint-order:stroke fill markers"
         d="m 39.187272,59.00415 c -1.629283,1.86e-4 -2.940257,1.252982 -3.034957,2.856674 l 3.263884,-2.847372 c -0.07561,-0.0055 -0.151806,-0.0093 -0.228927,-0.0093 z"
         id="path6133" /><path
         style="color:#000000;fill:#ffffff;stroke-width:4.22368;stroke-linejoin:round;-inkscape-stroke:none;paint-order:stroke fill markers"
         d="m 49.717896,57.460059 -0.340031,0.296622 c 0.286825,0.71618 0.520641,1.467262 0.693497,2.247925 l 0.847494,-0.73949 c -0.03654,-0.141287 -0.07447,-0.28173 -0.114722,-0.421163 z"
         id="path6131" /><path
         style="color:#000000;fill:#ffffff;stroke-width:4.22368;stroke-linejoin:round;-inkscape-stroke:none;paint-order:stroke fill markers"
         d="m 42.888338,53.13009 -4.517037,3.941362 c 0.26594,-0.04384 0.53813,-0.06766 0.815971,-0.0677 0.723273,-10e-6 1.412037,0.155511 2.035535,0.433048 l 3.482475,-3.038574 c -0.562933,-0.502099 -1.172598,-0.928346 -1.816944,-1.26814 z"
         id="path6129" /><path
         style="color:#000000;fill:#ffffff;stroke-width:4.22368;stroke-linejoin:round;-inkscape-stroke:none;paint-order:stroke fill markers"
         d="m 39.187272,52.193197 c -4.298963,0 -8.154376,3.641124 -9.046476,8.812898 l 10.026261,-8.748303 c -0.323187,-0.04184 -0.650253,-0.0646 -0.979785,-0.0646 z"
         id="path6127" /><path
         style="color:#000000;fill:#ffffff;stroke-width:4.22368;stroke-linejoin:round;-inkscape-stroke:none;paint-order:stroke fill markers"
         d="m 45.269588,51.052181 -0.784965,0.685229 c 0.615056,0.383538 1.195923,0.832436 1.736328,1.337903 l 0.712102,-0.62115 -0.22686,-0.289388 c -0.454065,-0.408041 -0.934017,-0.780421 -1.436605,-1.112594 z"
         id="path6125" /><path
         style="color:#000000;fill:#ffffff;stroke-width:4.22368;stroke-linejoin:round;-inkscape-stroke:none;paint-order:stroke fill markers"
         d="m 39.187272,49.19338 c -6.804825,0 -12.24008,6.361222 -12.24008,14.101465 0,0.164207 0.0034,0.327488 0.0083,0.490409 l 0.996838,-0.869198 c 0.172227,-7.09486 5.161935,-12.722737 11.234973,-12.722737 0.985723,0 1.942936,0.149159 2.85564,0.427881 l 0.873331,-0.762228 C 41.742398,49.427625 40.490031,49.19338 39.187272,49.19338 Z"
         id="path6123" /><path
         style="color:#000000;fill:#ffffff;stroke-width:4.22368;stroke-linecap:round;stroke-linejoin:round;-inkscape-stroke:none;paint-order:stroke fill markers"
         d="m 39.1875,48.193359 c -7.42351,0 -13.240234,6.889126 -13.240234,15.101563 0,8.212437 5.816724,15.103515 13.240234,15.103515 7.42351,0 13.240234,-6.891078 13.240234,-15.103515 0,-8.212437 -5.816724,-15.101563 -13.240234,-15.101563 z m 0,3 c 5.54503,0 10.240234,5.288488 10.240234,12.101563 0,6.813075 -4.695204,12.103515 -10.240234,12.103515 -5.54503,0 -10.240234,-5.29044 -10.240234,-12.103515 0,-6.813075 4.695204,-12.101563 10.240234,-12.101563 z"
         id="path234" /><path
         id="path995"
         style="stroke-width:8.44733;stroke-linecap:round;stroke-linejoin:round;paint-order:stroke fill markers;fill:#ffffff"
         d="m 43.230622,62.047008 a 4.0420744,4.0420744 0 0 1 -4.042075,4.042076 4.0420744,4.0420744 0 0 1 -4.042073,-4.042076 4.0420744,4.0420744 0 0 1 4.042073,-4.042073 4.0420744,4.0420744 0 0 1 4.042075,4.042073 z" /><path
         id="ellipse2697"
         style="fill:#ffffff;stroke:none;stroke-width:8.44733;stroke-linecap:round;stroke-linejoin:round;paint-order:stroke fill markers"
         d="m 36.092599,67.092395 a 2.4907811,2.4907811 0 0 0 -0.07435,0.0044 2.490527,2.490527 0 0 0 -2.393222,1.571986 l -2.004086,5.072227 a 10.969072,14.218089 0 0 0 7.566866,3.936238 10.969072,14.218089 0 0 0 7.567348,-3.935755 l -2.00409,-5.072786 a 2.490527,2.490527 0 0 0 -2.393221,-1.571984 2.4907811,2.4907811 0 0 0 -0.07435,-0.0044 z" /><path
         style="fill:#ffffff;stroke:none;stroke-width:8.44737;stroke-linecap:butt;stroke-linejoin:round;stroke-dasharray:none;paint-order:stroke fill markers"
         d="m 40.640466,76.207041 h -2.905871 c 0,0 -3.198665,7.979515 -0.737858,10.440322 1.03275,1.03275 3.348837,1.03275 4.381587,0 2.460807,-2.460807 -0.737858,-10.440322 -0.737858,-10.440322 z"
         id="path8381"
         sodipodi:nodetypes="ccssc" /></g></g></svg>
